# xmcd CD database file
#
# Track frame offsets:
#	150
#	16182
#	43657
#	61842
#	83810
#	103732
#	119395
#	135107
#	155860
#	169895
#	191665
#	207552
#
# Disc length: 3088 seconds
#
# Revision: 0
# Processed by: cddbd v1.5.2PL0 Copyright (c) Steve Scherf et al.
# Submitted via: CDex 1.70beta1
#
DISCID=a10c0e0c
DTITLE=John Petters Hot Three,Art Hodges, Trevor Whiting - Sensation
DYEAR=1900
DGENRE=Jazz
TTITLE0=Clarinet Marmalade
TTITLE1=Lazybones
TTITLE2=Mama's Gone Goodbye
TTITLE3=Lonesome Blues
TTITLE4=Jackass Blues
TTITLE5=Cakewalk Babies
TTITLE6=Sensation Rag
TTITLE7=Jeeps Blues
TTITLE8=Balling The Jack
TTITLE9=Snowball
TTITLE10=Dear Old Southland
TTITLE11=Wolverine Blues
EXTD=
EXTT0=
EXTT1=
EXTT2=
EXTT3=
EXTT4=
EXTT5=
EXTT6=
EXTT7=
EXTT8=
EXTT9=
EXTT10=
EXTT11=
PLAYORDER=
